<?xml version="1.0" standalone="no"?>
<!DOCTYPE svg PUBLIC "-//W3C//DTD SVG 20010904//EN"
 "http://www.w3.org/TR/2001/REC-SVG-20010904/DTD/svg10.dtd">
<svg version="1.0" xmlns="http://www.w3.org/2000/svg"
 width="597.000000pt" height="592.000000pt" viewBox="0 0 597.000000 592.000000"
 preserveAspectRatio="xMidYMid meet">

<g transform="translate(0.000000,592.000000) scale(0.100000,-0.100000)"
fill="#000000" stroke="none">
<path d="M2719 5836 c-2 -2 -34 -7 -71 -10 -129 -10 -204 -44 -292 -130 -78
-75 -125 -161 -156 -283 -15 -58 -68 -366 -86 -498 -20 -145 -5 -453 32 -645
9 -47 19 -180 24 -300 7 -188 12 -226 35 -305 40 -136 40 -136 11 -194 -26
-51 -27 -51 -54 -37 -15 8 -42 26 -61 40 -21 16 -48 26 -68 26 -23 0 -37 7
-46 23 -108 174 -201 316 -248 378 -33 42 -59 85 -59 97 0 13 -10 26 -27 34
-21 10 -42 42 -87 133 -245 500 -241 491 -209 545 16 28 16 31 -5 69 -29 51
-28 57 13 102 44 49 44 75 1 123 l-35 37 -33 -17 c-18 -9 -49 -29 -68 -44 -19
-15 -55 -37 -79 -49 -24 -13 -45 -31 -48 -41 -3 -10 -13 -20 -24 -23 -40 -11
-12 -164 46 -247 13 -19 29 -57 36 -85 6 -27 25 -75 42 -105 18 -31 30 -66 29
-82 -3 -35 7 -54 57 -112 22 -25 60 -89 86 -141 l46 -96 -22 -64 c-37 -110
-21 -163 130 -440 27 -49 52 -105 56 -124 4 -19 15 -51 24 -71 14 -26 16 -43
9 -65 -9 -32 -2 -123 13 -162 5 -13 23 -42 40 -63 19 -24 29 -45 25 -55 -9
-24 -202 -113 -282 -129 -39 -8 -109 -20 -157 -26 -103 -13 -150 -4 -260 47
-76 36 -78 36 -111 20 -29 -13 -36 -25 -55 -85 -11 -39 -21 -85 -21 -104 0
-18 -7 -79 -17 -135 -19 -117 -22 -111 63 -153 106 -53 357 -67 505 -30 121
31 267 87 331 125 31 19 58 35 60 35 3 0 11 -25 18 -55 16 -65 44 -115 65
-115 32 0 12 -16 -62 -49 -42 -19 -91 -50 -110 -69 -21 -21 -40 -31 -51 -28
-11 4 -34 -9 -64 -35 -73 -62 -86 -135 -43 -233 20 -45 32 -58 62 -71 28 -12
44 -13 61 -6 18 9 24 8 28 -4 9 -24 35 -18 94 22 62 41 203 157 239 197 29 31
41 33 41 6 0 -22 -34 -130 -50 -158 -11 -20 -30 -166 -36 -275 -2 -60 1 -93
17 -140 37 -112 40 -117 65 -117 18 0 24 -6 24 -21 0 -22 10 -23 85 -5 24 5
110 42 147 62 27 14 29 14 67 -23 l39 -38 -14 -225 c-8 -124 -13 -290 -12
-370 1 -118 -2 -151 -15 -177 -30 -57 -22 -125 23 -212 48 -92 92 -137 184
-187 60 -32 81 -38 165 -45 78 -7 113 -5 186 10 49 11 98 22 107 26 27 11 44
45 78 156 54 176 60 202 60 262 0 49 5 66 31 103 17 25 37 48 45 51 8 3 14 13
14 22 0 13 51 84 90 125 6 5 38 -10 79 -38 39 -26 85 -52 103 -58 18 -6 72
-34 121 -61 82 -47 87 -52 87 -83 0 -74 51 -255 88 -312 8 -12 24 -22 38 -22
12 0 25 -4 29 -9 13 -22 192 -101 225 -100 19 0 69 15 110 32 61 27 81 41 112
82 95 126 127 223 108 332 -6 38 -15 102 -20 144 -12 109 -29 160 -61 177 -14
9 -46 51 -71 96 -78 137 -165 309 -178 348 -11 37 -10 39 43 105 77 98 113
208 147 458 16 121 18 164 10 310 -14 267 -52 591 -76 658 -8 20 -14 48 -14
61 0 24 3 23 98 -31 172 -99 275 -151 378 -192 56 -22 125 -54 153 -71 29 -16
55 -30 58 -30 3 0 21 -11 39 -25 52 -40 71 -34 80 23 3 26 24 103 44 172 21
69 54 186 74 260 19 74 49 176 66 225 50 146 77 236 92 305 12 60 16 65 43 70
24 4 30 10 30 30 0 21 -7 27 -45 39 -25 7 -83 28 -130 46 -47 18 -137 47 -200
65 -189 52 -302 90 -355 119 -55 31 -89 27 -101 -11 -3 -11 -18 -39 -33 -61
-31 -47 -71 -138 -71 -161 0 -13 -15 -14 -102 -9 -86 4 -116 2 -183 -17 -44
-12 -107 -27 -141 -34 l-61 -12 -47 41 -47 41 20 18 c12 11 21 25 21 33 0 7 5
21 11 31 9 14 8 46 -5 133 -9 63 -23 251 -31 419 -16 335 -22 390 -55 500 -39
133 -237 467 -330 560 -98 97 -183 170 -199 170 -10 0 -44 16 -77 36 -105 64
-188 104 -244 119 -49 13 -230 21 -241 11z m692 -542 c39 -35 59 -96 59 -177
0 -90 -14 -129 -62 -174 -24 -23 -47 -34 -78 -38 -69 -9 -107 16 -148 95 -29
55 -33 72 -29 112 9 71 82 170 147 197 33 14 88 6 111 -15z m-773 -139 c43
-19 79 -50 98 -87 35 -67 -5 -179 -78 -222 -118 -69 -248 6 -248 144 0 78 36
132 110 164 45 20 72 20 118 1z m616 -876 c61 -53 59 -160 -5 -213 -39 -33
-155 -68 -247 -74 -66 -4 -78 -2 -136 27 -65 32 -96 70 -96 119 0 34 121 135
135 112 10 -16 45 -11 76 10 46 33 99 49 171 49 61 1 70 -2 102 -30z m1571
-545 c61 -25 135 -54 165 -64 31 -10 56 -24 58 -33 2 -9 -7 -35 -19 -59 l-23
-43 -6 30 c-4 19 -2 34 7 41 24 20 14 30 -43 42 -32 6 -65 19 -75 28 -10 9
-22 13 -28 9 -18 -11 -7 -67 16 -82 19 -13 23 -12 33 6 14 27 33 27 25 0 -5
-14 -1 -25 12 -34 10 -7 16 -16 12 -19 -6 -6 -158 56 -246 102 l-62 32 17 45
c10 27 23 45 32 45 8 0 65 -21 125 -46z m-968 -31 c27 -27 65 -75 85 -108 34
-59 35 -63 30 -142 l-4 -82 -25 10 c-13 5 -71 9 -127 9 -56 0 -105 2 -108 5
-3 3 8 44 24 92 16 47 36 126 45 175 10 48 20 88 24 88 4 0 30 -21 56 -47z
m540 -6 c3 -3 -11 -43 -30 -89 -19 -46 -43 -119 -52 -163 -10 -44 -20 -83 -24
-87 -4 -4 -12 18 -20 50 -7 31 -20 65 -28 74 -11 13 -13 27 -8 55 4 21 7 68 7
105 l-1 67 37 3 c39 3 109 -6 119 -15z m-2092 -107 c3 -5 1 -10 -4 -10 -6 0
-11 5 -11 10 0 6 2 10 4 10 3 0 8 -4 11 -10z m191 -174 c60 -62 119 -131 130
-152 l22 -39 -92 -1 c-116 -2 -168 -16 -233 -65 -29 -21 -54 -39 -57 -39 -3 0
-15 32 -27 70 l-23 70 27 83 c43 129 83 186 133 187 7 0 61 -51 120 -114z
m2198 19 c-4 -8 -10 -15 -15 -15 -4 0 -6 7 -3 15 4 8 10 15 15 15 4 0 6 -7 3
-15z m-2641 -12 c8 -12 -109 -211 -171 -293 -69 -90 -72 -95 -77 -122 -5 -21
-13 -34 -18 -27 -1 2 -21 29 -44 59 -48 64 -63 119 -39 140 11 9 15 22 11 44
-9 50 23 91 99 125 35 16 81 40 102 55 28 19 51 26 86 26 26 0 49 -3 51 -7z
m1996 -81 c1 -7 -3 -10 -9 -7 -5 3 -10 18 -9 33 0 24 1 25 9 7 5 -11 9 -26 9
-33z m-85 -47 c31 -14 67 -25 79 -25 18 0 27 -11 44 -57 49 -129 98 -359 114
-532 5 -64 16 -168 23 -231 8 -63 14 -165 15 -226 2 -138 -33 -413 -55 -434
-14 -12 -199 -32 -236 -25 -34 7 -390 -34 -526 -60 -55 -11 -78 -11 -91 -3
-14 8 -51 5 -155 -12 -76 -12 -138 -20 -139 -18 -19 36 -29 44 -67 51 l-42 9
7 81 c4 45 8 83 9 84 1 1 47 7 102 13 54 6 144 22 199 35 55 13 168 31 250 40
160 17 205 25 385 73 84 22 138 30 199 30 97 0 154 22 149 57 -4 24 4 24 -243
-4 -245 -29 -356 -47 -429 -72 -45 -15 -105 -23 -245 -30 -102 -5 -208 -16
-236 -24 -45 -13 -229 -39 -565 -80 -69 -9 -178 -23 -243 -31 -64 -9 -123 -14
-130 -11 -26 10 -75 583 -57 676 5 30 10 70 10 89 0 22 9 47 25 68 14 18 25
38 25 43 0 6 20 50 45 97 25 46 45 91 45 98 0 20 68 94 128 138 49 36 65 42
136 51 121 14 141 6 273 -118 150 -140 236 -182 416 -206 146 -19 177 0 263
154 156 281 176 309 219 327 11 5 70 9 131 9 98 1 118 -2 168 -24z m760 -30
c-4 -8 -8 -15 -10 -15 -2 0 -4 7 -4 15 0 8 4 15 10 15 5 0 7 -7 4 -15z m-154
-55 c0 -5 -4 -10 -10 -10 -5 0 -10 5 -10 10 0 6 5 10 10 10 6 0 10 -4 10 -10z
m-326 -32 c-11 -37 -34 -78 -43 -78 -9 0 -21 34 -21 61 0 16 32 37 58 38 9 1
11 -6 6 -21z m421 -28 c3 -5 2 -10 -4 -10 -5 0 -13 5 -16 10 -3 6 -2 10 4 10
5 0 13 -4 16 -10z m-2740 -166 c-14 -32 -27 -60 -29 -62 -7 -6 -46 18 -46 28
0 11 92 101 97 96 2 -2 -8 -30 -22 -62z m95 -309 c0 -16 -6 -25 -15 -25 -24 0
-31 -31 -10 -46 26 -19 6 -39 -67 -65 -42 -16 -58 -27 -56 -38 4 -22 48 -25
91 -7 l35 14 4 -46 c3 -26 2 -50 -1 -54 -3 -3 -38 -4 -78 -1 l-71 6 -12 42
c-7 26 -9 56 -4 76 4 19 8 38 8 42 1 8 156 125 169 126 4 1 7 -10 7 -24z m852
-857 c-1 -40 -6 -84 -9 -98 -3 -14 -5 -32 -4 -41 1 -13 -15 -20 -71 -32 -40
-9 -96 -19 -124 -22 -49 -6 -52 -5 -58 19 -3 14 -6 71 -5 125 l1 99 112 9 c61
6 122 11 136 11 26 2 26 2 22 -70z m-339 -83 l2 -120 -155 3 -155 4 -28 31
c-28 33 -48 89 -51 142 l-1 30 95 7 c52 4 133 12 180 17 47 4 91 8 98 7 9 -1
13 -33 15 -121z m1627 -45 c-10 -36 -51 -90 -108 -142 -22 -20 -42 -41 -43
-45 -8 -16 -96 -80 -159 -115 -79 -44 -193 -82 -326 -108 -54 -11 -124 -25
-154 -31 -61 -13 -363 -5 -465 11 -290 47 -376 74 -459 149 -29 25 -69 60 -89
77 -20 17 -37 34 -37 36 0 3 57 8 128 12 198 11 299 24 399 52 72 20 99 24
121 16 18 -6 49 -6 83 -1 30 5 119 13 199 18 223 15 477 40 561 57 86 17 265
41 321 43 36 1 37 1 28 -29z m-1317 -507 c-7 -2 -19 -2 -25 0 -7 3 -2 5 12 5
14 0 19 -2 13 -5z"/>
<path d="M3290 5173 c-48 -18 -63 -60 -34 -101 17 -25 65 -30 83 -8 15 18 24
78 14 92 -10 15 -44 24 -63 17z"/>
<path d="M2543 5038 c-37 -47 -39 -98 -4 -98 28 0 71 39 71 64 0 40 -45 62
-67 34z"/>
<path d="M3029 4156 c-76 -17 -89 -23 -89 -41 0 -21 -3 -21 178 20 12 3 22 12
22 20 0 18 -31 18 -111 1z"/>
<path d="M4686 3753 c-3 -3 -6 -19 -6 -34 0 -34 37 -52 52 -25 13 23 28 20 28
-7 0 -25 28 -57 48 -57 7 0 12 8 12 18 0 10 5 23 11 29 14 14 2 36 -17 29 -7
-3 -16 -1 -19 4 -4 6 -15 10 -26 10 -11 0 -18 4 -14 9 3 5 2 12 -2 14 -17 10
-60 16 -67 10z"/>
</g>
</svg>
